<svg version="1.1" id="Capa_1" xmlns="http://www.w3.org/2000/svg" xmlns:xlink="http://www.w3.org/1999/xlink" x="0px" y="0px"
	 viewBox="0 0 490.688 490.688" style="enable-background:new 0 0 490.688 490.688;" xml:space="preserve">
<path style="fill:#9c358a;" d="M462.784,209.088c-7.552-5.568-17.067-12.523-18.219-17.067c0.484-8.796,2.996-17.36,7.339-25.024
	c6.656-15.275,13.525-31.104,5.888-44.267c-7.637-13.163-25.003-15.296-41.707-17.067c-8.658-0.058-17.188-2.094-24.939-5.952
	c-3.864-7.778-5.893-16.339-5.931-25.024c-1.877-16.704-3.819-33.984-17.067-41.707c-13.248-7.723-29.099-0.96-44.373,5.781
	c-7.672,4.341-16.243,6.852-25.045,7.339c-4.608-1.237-11.541-10.667-17.067-18.219c-9.685-13.056-20.587-27.861-36.331-27.861
	s-26.645,14.805-36.267,27.861c-5.589,7.573-12.523,17.067-17.067,18.24c-8.794-0.53-17.356-3.038-25.045-7.339
	c-15.36-6.763-31.189-13.504-44.309-5.909s-15.317,25.003-17.195,41.813c-0.061,8.655-2.089,17.183-5.931,24.939
	c-7.736,3.803-16.233,5.801-24.853,5.845c-16.725,1.877-34.027,3.819-41.728,17.067S32,151.616,38.741,166.912
	c4.357,7.689,6.869,16.284,7.339,25.109c-1.237,4.608-10.667,11.563-18.219,17.067C14.805,218.688,0,229.611,0,245.355
	s14.805,26.667,27.883,36.267c7.552,5.568,17.067,12.523,18.219,17.067c-0.484,8.796-2.996,17.36-7.339,25.024
	c-6.656,15.275-13.525,31.104-5.888,44.267c7.637,13.163,25.003,15.296,41.707,17.067c8.658,0.058,17.188,2.094,24.939,5.952
	c3.864,7.778,5.893,16.339,5.931,25.024c1.877,16.704,3.819,33.984,17.067,41.707c13.248,7.723,28.971,0.768,44.267-5.888
	c7.749-4.293,16.37-6.773,25.216-7.253c4.608,1.237,11.541,10.667,17.067,18.219c9.621,13.056,20.523,27.861,36.267,27.861
	s26.645-14.805,36.267-27.861c5.589-7.573,12.523-17.067,17.067-18.24c8.8,0.498,17.368,3.008,25.045,7.339
	c15.275,6.656,31.104,13.483,44.245,5.909c13.141-7.573,15.317-25.003,17.195-41.728c0.061-8.655,2.089-17.183,5.931-24.939
	c7.75-3.834,16.271-5.855,24.917-5.909c16.725-1.877,34.027-3.819,41.728-17.067c7.701-13.248,0.747-28.971-5.888-44.267
	c-4.343-7.728-6.826-16.362-7.253-25.216c1.237-4.608,10.667-11.563,18.219-17.067c13.056-9.621,27.883-20.544,27.883-36.267
	S475.861,218.688,462.784,209.088z"/>
</svg>
